<svg id="visual" viewBox="0 0 900 600" width="900" height="600" xmlns="http://www.w3.org/2000/svg" xmlns:xlink="http://www.w3.org/1999/xlink" version="1.1"><rect x="0" y="0" width="900" height="600" fill="#1e2f23"></rect><path d="M0 396L21.5 393.5C43 391 86 386 128.8 387.2C171.7 388.3 214.3 395.7 257.2 390.7C300 385.7 343 368.3 385.8 362.2C428.7 356 471.3 361 514.2 374C557 387 600 408 642.8 407.3C685.7 406.7 728.3 384.3 771.2 376.2C814 368 857 374 878.5 377L900 380L900 601L878.5 601C857 601 814 601 771.2 601C728.3 601 685.7 601 642.8 601C600 601 557 601 514.2 601C471.3 601 428.7 601 385.8 601C343 601 300 601 257.2 601C214.3 601 171.7 601 128.8 601C86 601 43 601 21.5 601L0 601Z" fill="#2dc653"></path><path d="M0 401L21.5 400.7C43 400.3 86 399.7 128.8 405.2C171.7 410.7 214.3 422.3 257.2 435C300 447.7 343 461.3 385.8 459.2C428.7 457 471.3 439 514.2 432.2C557 425.3 600 429.7 642.8 435.7C685.7 441.7 728.3 449.3 771.2 451.7C814 454 857 451 878.5 449.5L900 448L900 601L878.5 601C857 601 814 601 771.2 601C728.3 601 685.7 601 642.8 601C600 601 557 601 514.2 601C471.3 601 428.7 601 385.8 601C343 601 300 601 257.2 601C214.3 601 171.7 601 128.8 601C86 601 43 601 21.5 601L0 601Z" fill="#25a445"></path><path d="M0 445L21.5 454.7C43 464.3 86 483.7 128.8 485.3C171.7 487 214.3 471 257.2 466.3C300 461.7 343 468.3 385.8 470.8C428.7 473.3 471.3 471.7 514.2 469.5C557 467.3 600 464.7 642.8 460.7C685.7 456.7 728.3 451.3 771.2 458.8C814 466.3 857 486.7 878.5 496.8L900 507L900 601L878.5 601C857 601 814 601 771.2 601C728.3 601 685.7 601 642.8 601C600 601 557 601 514.2 601C471.3 601 428.7 601 385.8 601C343 601 300 601 257.2 601C214.3 601 171.7 601 128.8 601C86 601 43 601 21.5 601L0 601Z" fill="#1d8337"></path><path d="M0 517L21.5 515.8C43 514.7 86 512.3 128.8 515.5C171.7 518.7 214.3 527.3 257.2 525.8C300 524.3 343 512.7 385.8 506.8C428.7 501 471.3 501 514.2 505.3C557 509.7 600 518.3 642.8 524.5C685.7 530.7 728.3 534.3 771.2 527.2C814 520 857 502 878.5 493L900 484L900 601L878.5 601C857 601 814 601 771.2 601C728.3 601 685.7 601 642.8 601C600 601 557 601 514.2 601C471.3 601 428.7 601 385.8 601C343 601 300 601 257.2 601C214.3 601 171.7 601 128.8 601C86 601 43 601 21.5 601L0 601Z" fill="#16632a"></path><path d="M0 536L21.5 539C43 542 86 548 128.8 548.7C171.7 549.3 214.3 544.7 257.2 545.3C300 546 343 552 385.8 552.2C428.7 552.3 471.3 546.7 514.2 542.7C557 538.7 600 536.3 642.8 536.2C685.7 536 728.3 538 771.2 542.5C814 547 857 554 878.5 557.5L900 561L900 601L878.5 601C857 601 814 601 771.2 601C728.3 601 685.7 601 642.8 601C600 601 557 601 514.2 601C471.3 601 428.7 601 385.8 601C343 601 300 601 257.2 601C214.3 601 171.7 601 128.8 601C86 601 43 601 21.5 601L0 601Z" fill="#10451d"></path></svg>