<svg id="visual" viewBox="0 0 900 600" width="900" height="600" xmlns="http://www.w3.org/2000/svg" xmlns:xlink="http://www.w3.org/1999/xlink" version="1.1"><rect x="0" y="0" width="900" height="600" fill="#1e2f23"></rect><path d="M0 394L21.5 399.5C43 405 86 416 128.8 414C171.7 412 214.3 397 257.2 399.2C300 401.3 343 420.7 385.8 418.2C428.7 415.7 471.3 391.3 514.2 387.5C557 383.7 600 400.3 642.8 408.5C685.7 416.7 728.3 416.3 771.2 409.8C814 403.3 857 390.7 878.5 384.3L900 378L900 601L878.5 601C857 601 814 601 771.2 601C728.3 601 685.7 601 642.8 601C600 601 557 601 514.2 601C471.3 601 428.7 601 385.8 601C343 601 300 601 257.2 601C214.3 601 171.7 601 128.8 601C86 601 43 601 21.5 601L0 601Z" fill="#2dc653"></path><path d="M0 417L21.5 422.8C43 428.7 86 440.3 128.8 444.2C171.7 448 214.3 444 257.2 435.5C300 427 343 414 385.8 420.7C428.7 427.3 471.3 453.7 514.2 457.3C557 461 600 442 642.8 428.7C685.7 415.3 728.3 407.7 771.2 416.8C814 426 857 452 878.5 465L900 478L900 601L878.5 601C857 601 814 601 771.2 601C728.3 601 685.7 601 642.8 601C600 601 557 601 514.2 601C471.3 601 428.7 601 385.8 601C343 601 300 601 257.2 601C214.3 601 171.7 601 128.8 601C86 601 43 601 21.5 601L0 601Z" fill="#25a445"></path><path d="M0 476L21.5 478.8C43 481.7 86 487.3 128.8 492C171.7 496.7 214.3 500.3 257.2 493C300 485.7 343 467.3 385.8 466C428.7 464.7 471.3 480.3 514.2 479.3C557 478.3 600 460.7 642.8 460.2C685.7 459.7 728.3 476.3 771.2 482.3C814 488.3 857 483.7 878.5 481.3L900 479L900 601L878.5 601C857 601 814 601 771.2 601C728.3 601 685.7 601 642.8 601C600 601 557 601 514.2 601C471.3 601 428.7 601 385.8 601C343 601 300 601 257.2 601C214.3 601 171.7 601 128.8 601C86 601 43 601 21.5 601L0 601Z" fill="#1d8337"></path><path d="M0 502L21.5 503.3C43 504.7 86 507.3 128.8 508C171.7 508.7 214.3 507.3 257.2 510.2C300 513 343 520 385.8 516.2C428.7 512.3 471.3 497.7 514.2 498C557 498.3 600 513.7 642.8 518.2C685.7 522.7 728.3 516.3 771.2 515.8C814 515.3 857 520.7 878.5 523.3L900 526L900 601L878.5 601C857 601 814 601 771.2 601C728.3 601 685.7 601 642.8 601C600 601 557 601 514.2 601C471.3 601 428.7 601 385.8 601C343 601 300 601 257.2 601C214.3 601 171.7 601 128.8 601C86 601 43 601 21.5 601L0 601Z" fill="#16632a"></path><path d="M0 565L21.5 559.8C43 554.7 86 544.3 128.8 538.2C171.7 532 214.3 530 257.2 535.8C300 541.7 343 555.3 385.8 560.8C428.7 566.3 471.3 563.7 514.2 559.7C557 555.7 600 550.3 642.8 548.5C685.7 546.7 728.3 548.3 771.2 551.2C814 554 857 558 878.5 560L900 562L900 601L878.5 601C857 601 814 601 771.2 601C728.3 601 685.7 601 642.8 601C600 601 557 601 514.2 601C471.3 601 428.7 601 385.8 601C343 601 300 601 257.2 601C214.3 601 171.7 601 128.8 601C86 601 43 601 21.5 601L0 601Z" fill="#10451d"></path></svg>